<svg width="112" height="83" viewBox="0 0 112 83" fill="none" xmlns="http://www.w3.org/2000/svg">
<path d="M4 7.68457L21.7545 17.2877L37.6024 14.53C42.9522 13.5991 48.4347 15.1382 52.5301 18.7207" stroke="white" stroke-width="8" stroke-linecap="round" stroke-linejoin="round"/>
<path d="M90.8475 58.079L65.7452 75.9962C60.2273 79.9351 52.8533 80.0059 47.2611 76.1743L4 46.5355" stroke="white" stroke-width="8" stroke-linecap="round" stroke-linejoin="round"/>
<path d="M108 46.3439L90.2383 58.5421L62.6797 36.1779L52.5427 43.5929C48.4209 46.608 42.6628 45.7956 39.5261 41.7566C36.3967 37.7267 37.0004 31.9308 40.8924 28.6396L51.4475 19.7141C56.5064 15.4362 63.0828 13.4173 69.6566 14.1243L86.1072 15.8932L108 4" stroke="white" stroke-width="8" stroke-linecap="round" stroke-linejoin="round"/>
<path d="M62.6819 36.2412C69.3131 42.179 78.7174 39.1498 82.214 34.3026" stroke="white" stroke-width="8" stroke-linecap="round" stroke-linejoin="round"/>
</svg>
