<svg width="100" height="100" viewBox="0 0 100 100" fill="none" xmlns="http://www.w3.org/2000/svg">
<path d="M59.1624 5.94137L63.1426 5.54336L63.1426 5.54335L59.1624 5.94137ZM60.5152 19.4691L64.4954 19.0711L64.4954 19.0711L60.5152 19.4691ZM63.7718 20.818L61.2388 17.7221L61.2388 17.7221L63.7718 20.818ZM74.2938 12.2091L76.8267 15.3049L76.8267 15.3049L74.2938 12.2091ZM75.6772 11.4112L75.478 15.4062L75.478 15.4062L75.6772 11.4112ZM76.9745 12.3428L74.146 15.1712L74.146 15.1712L76.9745 12.3428ZM87.3411 22.7095L90.1696 19.881L90.1696 19.881L87.3411 22.7095ZM88.2727 24.0067L84.2777 24.2059L84.2777 24.2059L88.2727 24.0067ZM87.4749 25.3901L90.5707 27.9231L90.5707 27.9231L87.4749 25.3901ZM78.8658 35.9123L75.77 33.3793L75.77 33.3793L78.8658 35.9123ZM77.5355 38.371L81.231 36.8403L81.231 36.8402L77.5355 38.371ZM80.2147 39.1688L80.6128 35.1887L80.6128 35.1887L80.2147 39.1688ZM93.7427 40.5216L94.1407 36.5415L94.1407 36.5415L93.7427 40.5216ZM95.2851 40.9357L98.251 38.2517L98.2509 38.2516L95.2851 40.9357ZM95.2851 58.7484L98.2509 61.4325L98.251 61.4324L95.2851 58.7484ZM93.7427 59.1625L94.1407 63.1426L94.1407 63.1426L93.7427 59.1625ZM80.2165 60.5151L80.6145 64.4953L80.6145 64.4953L80.2165 60.5151ZM77.5372 61.313L81.2327 62.8437L81.2327 62.8437L77.5372 61.313ZM78.8675 63.7717L75.7717 66.3046L75.7717 66.3046L78.8675 63.7717ZM87.4751 74.2919L90.5709 71.759L90.5709 71.759L87.4751 74.2919ZM88.2729 75.6754L84.2779 75.4761L84.2779 75.4762L88.2729 75.6754ZM75.6774 88.2709L75.4782 84.2759L75.4782 84.2759L75.6774 88.2709ZM74.294 87.473L76.8269 84.3772L76.8269 84.3772L74.294 87.473ZM63.772 78.8641L61.239 81.9599L61.239 81.9599L63.772 78.8641ZM61.3133 77.5337L62.844 81.2293L62.844 81.2292L61.3133 77.5337ZM60.5154 80.213L64.4956 80.611L64.4956 80.611L60.5154 80.213ZM59.1624 93.7427L63.1426 94.1407L63.1426 94.1407L59.1624 93.7427ZM58.7484 95.2852L61.4324 98.251L61.4324 98.251L58.7484 95.2852ZM40.9357 95.2852L38.2516 98.251L38.2516 98.251L40.9357 95.2852ZM40.5216 93.7427L36.5414 94.1407L36.5414 94.1407L40.5216 93.7427ZM39.1688 80.2148L35.1886 80.6128L35.1886 80.6128L39.1688 80.2148ZM38.3709 77.5355L36.8402 81.231L36.8402 81.2311L38.3709 77.5355ZM35.9122 78.8659L33.3793 75.7701L33.3793 75.7701L35.9122 78.8659ZM25.3899 87.4751L22.8569 84.3793L22.8569 84.3793L25.3899 87.4751ZM24.0064 88.273L24.2057 84.2779L24.2056 84.2779L24.0064 88.273ZM22.7092 87.3414L19.8808 90.1698L19.8808 90.1698L22.7092 87.3414ZM12.3425 76.9747L9.51408 79.8031L9.51409 79.8031L12.3425 76.9747ZM11.4109 75.6775L7.41591 75.8767L7.41591 75.8767L11.4109 75.6775ZM12.2088 74.294L15.3046 76.827L15.3046 76.827L12.2088 74.294ZM20.8179 63.7718L23.9137 66.3048L23.9137 66.3048L20.8179 63.7718ZM19.469 60.5153L19.071 64.4954L19.071 64.4954L19.469 60.5153ZM5.94133 59.1625L5.54331 63.1426L5.54331 63.1426L5.94133 59.1625ZM4.14034 57.1724L0.140335 57.1724V57.1724H4.14034ZM4.14034 42.5117L8.14034 42.5117V42.5117H4.14034ZM5.94133 40.5216L5.54331 36.5415L5.54331 36.5415L5.94133 40.5216ZM19.4707 39.1687L19.0727 35.1885L19.0727 35.1885L19.4707 39.1687ZM22.15 38.3708L25.8455 39.9016L25.8455 39.9016L22.15 38.3708ZM20.8196 35.9121L17.7238 38.4451L17.7238 38.4451L20.8196 35.9121ZM12.209 25.3881L15.3049 22.8551L15.3048 22.8551L12.209 25.3881ZM11.4112 24.0046L15.4062 24.2039L15.4062 24.2039L11.4112 24.0046ZM22.7094 12.3407L19.881 9.51227L19.881 9.51227L22.7094 12.3407ZM24.0066 11.4091L24.2059 15.4042L24.2059 15.4042L24.0066 11.4091ZM25.3901 12.207L22.8572 15.3028L22.8572 15.3028L25.3901 12.207ZM35.9124 20.8162L33.3795 23.912L33.3795 23.912L35.9124 20.8162ZM39.169 19.4673L35.1888 19.0693L35.1888 19.0693L39.169 19.4673ZM40.5216 5.94137L36.5414 5.54335L36.5414 5.54336L40.5216 5.94137ZM40.9357 4.39893L38.2516 1.43312L38.2516 1.43313L40.9357 4.39893ZM63.1426 5.54335C63.1104 5.2218 63.0559 4.59821 62.9271 4.04262C62.7724 3.3758 62.4136 2.32115 61.4324 1.43312L56.0643 7.36473C55.7447 7.0755 55.5115 6.7486 55.3534 6.43647C55.2085 6.15054 55.1514 5.92564 55.1338 5.84964C55.117 5.7771 55.1191 5.76299 55.1325 5.87051C55.1458 5.97673 55.1595 6.11118 55.1823 6.33939L63.1426 5.54335ZM64.4954 19.0711L63.1426 5.54336L55.1823 6.33939L56.5351 19.8671L64.4954 19.0711ZM62.8438 18.4528C63.1568 18.5825 63.4571 18.7641 63.7268 18.9948C63.9928 19.2223 64.1869 19.4614 64.3244 19.6714C64.4585 19.8761 64.5376 20.0512 64.5812 20.1616C64.6246 20.2716 64.6435 20.3446 64.6472 20.3595C64.6506 20.3729 64.6315 20.296 64.5993 20.0418C64.5681 19.7952 64.5378 19.4953 64.4954 19.0711L56.5351 19.8671C56.6032 20.5486 56.6895 21.5186 56.889 22.3113C57.0898 23.1097 57.7047 24.9833 59.7823 25.8439L62.8438 18.4528ZM61.2388 17.7221C60.9088 17.9922 60.6754 18.1828 60.4789 18.3351C60.2763 18.492 60.2085 18.5329 60.2204 18.5259C60.2335 18.518 60.2985 18.4797 60.4069 18.4326C60.5159 18.3853 60.6956 18.3175 60.9352 18.2675C61.1809 18.2163 61.4872 18.1845 61.8361 18.2117C62.19 18.2392 62.5308 18.3232 62.8438 18.4528L59.7823 25.8439C61.8599 26.7044 63.6196 25.8144 64.3261 25.3919C65.0277 24.9724 65.7746 24.3475 66.3047 23.9138L61.2388 17.7221ZM71.7608 9.11324L61.2388 17.7221L66.3047 23.9138L76.8267 15.3049L71.7608 9.11324ZM75.8765 7.41616C74.5547 7.35023 73.5552 7.84227 72.9744 8.20446C72.4904 8.50623 72.0109 8.9086 71.7608 9.11324L76.8267 15.3049C77.0042 15.1597 77.109 15.0743 77.1935 15.0085C77.279 14.942 77.2705 14.9535 77.2073 14.9929C77.1411 15.0341 76.9417 15.1528 76.6371 15.2526C76.3045 15.3614 75.9085 15.4277 75.478 15.4062L75.8765 7.41616ZM79.8029 9.51434C79.5744 9.28583 79.1373 8.83774 78.6857 8.48931C78.1438 8.07113 77.1983 7.48208 75.8765 7.41616L75.478 15.4062C75.0475 15.3848 74.66 15.2794 74.3399 15.138C74.0468 15.0084 73.8602 14.8705 73.7984 14.8229C73.7394 14.7774 73.7322 14.7651 73.8106 14.8398C73.8881 14.9136 73.9839 15.009 74.146 15.1712L79.8029 9.51434ZM90.1696 19.881L79.8029 9.51434L74.146 15.1712L84.5127 25.5379L90.1696 19.881ZM92.2678 23.8075C92.2019 22.4857 91.6128 21.5401 91.1946 20.9982C90.8462 20.5466 90.3981 20.1095 90.1696 19.881L84.5127 25.5379C84.6749 25.7001 84.7703 25.7958 84.8441 25.8733C84.9188 25.9518 84.9066 25.9445 84.8611 25.8855C84.8134 25.8238 84.6755 25.6372 84.5459 25.344C84.4045 25.0239 84.2992 24.6364 84.2777 24.2059L92.2678 23.8075ZM90.5707 27.9231C90.7753 27.673 91.1777 27.1935 91.4795 26.7095C91.8417 26.1287 92.3337 25.1292 92.2678 23.8074L84.2777 24.2059C84.2562 23.7754 84.3225 23.3794 84.4314 23.0468C84.5311 22.7422 84.6498 22.5428 84.691 22.4766C84.7304 22.4134 84.7419 22.405 84.6754 22.4905C84.6096 22.575 84.5243 22.6797 84.379 22.8572L90.5707 27.9231ZM81.9617 38.4452L90.5707 27.9231L84.379 22.8572L75.77 33.3793L81.9617 38.4452ZM81.231 36.8402C81.3606 37.1532 81.4446 37.494 81.4721 37.8479C81.4993 38.1968 81.4675 38.5031 81.4163 38.7489C81.3663 38.9884 81.2985 39.1682 81.2512 39.2771C81.2042 39.3855 81.1658 39.4505 81.158 39.4637C81.1509 39.4755 81.1918 39.4077 81.3488 39.2051C81.5011 39.0087 81.6917 38.7752 81.9617 38.4452L75.77 33.3793C75.3363 33.9094 74.7114 34.6564 74.2919 35.3579C73.8694 36.0645 72.9794 37.8241 73.84 39.9017L81.231 36.8402ZM80.6128 35.1887C80.1885 35.1462 79.8887 35.116 79.642 35.0847C79.3878 35.0525 79.3109 35.0335 79.3243 35.0368C79.3392 35.0406 79.4122 35.0594 79.5222 35.1028C79.6326 35.1464 79.8077 35.2255 80.0124 35.3596C80.2224 35.4971 80.4615 35.6913 80.689 35.9572C80.9197 36.2269 81.1013 36.5273 81.231 36.8403L73.8399 39.9017C74.7005 41.9793 76.5741 42.5942 77.3725 42.7951C78.1652 42.9945 79.1352 43.0808 79.8167 43.149L80.6128 35.1887ZM94.1407 36.5415L80.6128 35.1887L79.8167 43.149L93.3447 44.5018L94.1407 36.5415ZM98.2509 38.2516C97.3629 37.2704 96.3083 36.9116 95.6414 36.757C95.0859 36.6282 94.4623 36.5736 94.1407 36.5415L93.3447 44.5018C93.5729 44.5246 93.7073 44.5383 93.8136 44.5515C93.9211 44.5649 93.907 44.5671 93.8344 44.5502C93.7584 44.5326 93.5335 44.4755 93.2476 44.3307C92.9355 44.1725 92.6086 43.9393 92.3194 43.6198L98.2509 38.2516ZM99.5437 42.5117C99.5437 42.1885 99.5515 41.5626 99.4786 40.997C99.3911 40.3181 99.139 39.2329 98.251 38.2517L92.3193 43.6197C92.0301 43.3001 91.8306 42.9516 91.7043 42.6253C91.5886 42.3264 91.5542 42.0969 91.5442 42.0195C91.5347 41.9457 91.5382 41.9319 91.5408 42.0402C91.5434 42.1472 91.5437 42.2823 91.5437 42.5117H99.5437ZM99.5437 57.1724V42.5117H91.5437V57.1724H99.5437ZM98.251 61.4324C99.139 60.4512 99.3911 59.366 99.4786 58.6871C99.5515 58.1215 99.5437 57.4956 99.5437 57.1724H91.5437C91.5437 57.4018 91.5434 57.5369 91.5408 57.6439C91.5382 57.7522 91.5347 57.7384 91.5442 57.6646C91.5542 57.5872 91.5886 57.3577 91.7043 57.0588C91.8306 56.7325 92.0301 56.384 92.3193 56.0644L98.251 61.4324ZM94.1407 63.1426C94.4623 63.1105 95.0859 63.0559 95.6414 62.9271C96.3083 62.7725 97.3629 62.4137 98.2509 61.4325L92.3194 56.0644C92.6086 55.7448 92.9355 55.5116 93.2476 55.3534C93.5335 55.2086 93.7584 55.1515 93.8344 55.1339C93.907 55.117 93.9211 55.1192 93.8136 55.1326C93.7073 55.1458 93.5729 55.1595 93.3447 55.1823L94.1407 63.1426ZM80.6145 64.4953L94.1407 63.1426L93.3447 55.1823L79.8184 56.535L80.6145 64.4953ZM81.2327 62.8437C81.1031 63.1566 80.9214 63.457 80.6907 63.7267C80.4632 63.9927 80.2241 64.1868 80.0141 64.3243C79.8094 64.4584 79.6343 64.5375 79.5239 64.5811C79.4139 64.6245 79.3409 64.6434 79.326 64.6471C79.3126 64.6505 79.3895 64.6314 79.6437 64.5992C79.8904 64.568 80.1902 64.5377 80.6145 64.4953L79.8184 56.535C79.1369 56.6031 78.1669 56.6894 77.3742 56.8889C76.5758 57.0897 74.7022 57.7046 73.8416 59.7822L81.2327 62.8437ZM81.9634 61.2387C81.6934 60.9087 81.5028 60.6753 81.3505 60.4788C81.1935 60.2762 81.1526 60.2084 81.1597 60.2203C81.1676 60.2334 81.2059 60.2984 81.2529 60.4068C81.3002 60.5158 81.3681 60.6955 81.418 60.9351C81.4692 61.1808 81.5011 61.4871 81.4739 61.8361C81.4463 62.1899 81.3623 62.5307 81.2327 62.8437L73.8417 59.7822C72.9811 61.8598 73.8711 63.6195 74.2936 64.326C74.7131 65.0276 75.338 65.7745 75.7717 66.3046L81.9634 61.2387ZM90.5709 71.759L81.9634 61.2387L75.7717 66.3046L84.3792 76.8249L90.5709 71.759ZM92.268 75.8747C92.3339 74.5529 91.8418 73.5534 91.4797 72.9726C91.1779 72.4886 90.7755 72.0091 90.5709 71.759L84.3792 76.8249C84.5245 77.0024 84.6098 77.1071 84.6756 77.1916C84.7421 77.2771 84.7306 77.2687 84.6912 77.2055C84.65 77.1393 84.5313 76.9399 84.4316 76.6352C84.3227 76.3027 84.2564 75.9066 84.2779 75.4761L92.268 75.8747ZM90.1698 79.8011C90.3983 79.5725 90.8464 79.1354 91.1948 78.6839C91.613 78.142 92.2021 77.1964 92.268 75.8746L84.2779 75.4762C84.2993 75.0457 84.4047 74.6582 84.5461 74.3381C84.6757 74.0449 84.8136 73.8583 84.8613 73.7966C84.9068 73.7376 84.919 73.7303 84.8443 73.8088C84.7705 73.8863 84.6751 73.982 84.5129 74.1442L90.1698 79.8011ZM79.8031 90.1677L90.1698 79.8011L84.5129 74.1442L74.1462 84.5109L79.8031 90.1677ZM75.8766 92.2659C77.1984 92.2 78.144 91.611 78.6859 91.1928C79.1375 90.8443 79.5746 90.3963 79.8031 90.1677L74.1462 84.5109C73.9841 84.6731 73.8883 84.7685 73.8108 84.8423C73.7324 84.917 73.7396 84.9047 73.7986 84.8592C73.8603 84.8116 74.047 84.6737 74.3401 84.5441C74.6602 84.4027 75.0477 84.2973 75.4782 84.2759L75.8766 92.2659ZM71.761 90.5688C72.0111 90.7735 72.4906 91.1758 72.9746 91.4776C73.5555 91.8398 74.5549 92.3319 75.8767 92.2659L75.4782 84.2759C75.9087 84.2544 76.3047 84.3206 76.6373 84.4295C76.9419 84.5293 77.1413 84.6479 77.2075 84.6892C77.2707 84.7286 77.2792 84.7401 77.1937 84.6736C77.1092 84.6078 77.0044 84.5224 76.8269 84.3772L71.761 90.5688ZM61.239 81.9599L71.761 90.5688L76.8269 84.3772L66.3049 75.7683L61.239 81.9599ZM62.844 81.2292C62.5311 81.3589 62.1902 81.4428 61.8364 81.4704C61.4874 81.4976 61.1811 81.4658 60.9354 81.4146C60.6958 81.3646 60.5161 81.2967 60.4071 81.2495C60.2987 81.2024 60.2337 81.1641 60.2205 81.1562C60.2087 81.1491 60.2765 81.19 60.4791 81.347C60.6756 81.4993 60.909 81.6899 61.239 81.9599L66.3049 75.7683C65.7748 75.3346 65.0279 74.7097 64.3263 74.2902C63.6198 73.8677 61.8601 72.9776 59.7825 73.8382L62.844 81.2292ZM64.4956 80.611C64.538 80.1867 64.5683 79.8869 64.5995 79.6403C64.6317 79.3861 64.6508 79.3092 64.6474 79.3226C64.6437 79.3374 64.6248 79.4105 64.5814 79.5204C64.5378 79.6309 64.4587 79.806 64.3246 80.0107C64.1871 80.2207 63.993 80.4598 63.727 80.6873C63.4573 80.918 63.157 81.0996 62.844 81.2293L59.7825 73.8382C57.7049 74.6988 57.09 76.5724 56.8892 77.3708C56.6897 78.1635 56.6034 79.1334 56.5353 79.815L64.4956 80.611ZM63.1426 94.1407L64.4956 80.611L56.5353 79.815L55.1823 93.3447L63.1426 94.1407ZM61.4324 98.251C62.4136 97.3629 62.7724 96.3083 62.9271 95.6415C63.0559 95.0859 63.1104 94.4623 63.1426 94.1407L55.1823 93.3447C55.1595 93.5729 55.1458 93.7074 55.1325 93.8136C55.1191 93.9211 55.117 93.907 55.1338 93.8345C55.1514 93.7585 55.2085 93.5336 55.3534 93.2476C55.5115 92.9355 55.7447 92.6086 56.0643 92.3194L61.4324 98.251ZM57.1724 99.5437C57.4955 99.5437 58.1215 99.5515 58.6871 99.4786C59.366 99.3911 60.4511 99.139 61.4324 98.251L56.0644 92.3194C56.384 92.0301 56.7324 91.8306 57.0588 91.7043C57.3577 91.5886 57.5871 91.5542 57.6645 91.5442C57.7384 91.5347 57.7522 91.5382 57.6439 91.5409C57.5369 91.5435 57.4017 91.5437 57.1724 91.5437V99.5437ZM42.5117 99.5437H57.1724V91.5437H42.5117V99.5437ZM38.2516 98.251C39.2329 99.139 40.318 99.3911 40.9969 99.4786C41.5626 99.5515 42.1885 99.5437 42.5117 99.5437V91.5437C42.2823 91.5437 42.1472 91.5435 42.0401 91.5409C41.9318 91.5382 41.9457 91.5347 42.0195 91.5442C42.0969 91.5542 42.3263 91.5886 42.6253 91.7043C42.9516 91.8306 43.3001 92.0301 43.6197 92.3194L38.2516 98.251ZM36.5414 94.1407C36.5736 94.4623 36.6281 95.0859 36.757 95.6415C36.9116 96.3083 37.2704 97.3629 38.2516 98.251L43.6197 92.3194C43.9393 92.6086 44.1725 92.9355 44.3306 93.2476C44.4755 93.5336 44.5326 93.7585 44.5502 93.8345C44.567 93.907 44.5649 93.9211 44.5515 93.8136C44.5382 93.7074 44.5246 93.5729 44.5017 93.3447L36.5414 94.1407ZM35.1886 80.6128L36.5414 94.1407L44.5017 93.3447L43.1489 79.8168L35.1886 80.6128ZM36.8402 81.2311C36.5273 81.1014 36.2269 80.9198 35.9572 80.6891C35.6912 80.4616 35.4971 80.2225 35.3596 80.0125C35.2255 79.8078 35.1464 79.6327 35.1028 79.5223C35.0594 79.4123 35.0405 79.3393 35.0368 79.3244C35.0334 79.311 35.0525 79.3879 35.0847 79.6421C35.1159 79.8887 35.1462 80.1886 35.1886 80.6128L43.1489 79.8168C43.0808 79.1353 42.9945 78.1653 42.795 77.3726C42.5942 76.5742 41.9793 74.7006 39.9017 73.84L36.8402 81.2311ZM38.4452 81.9617C38.7752 81.6917 39.0086 81.5011 39.2051 81.3488C39.4077 81.1919 39.4755 81.151 39.4637 81.158C39.4505 81.1659 39.3855 81.2042 39.2771 81.2513C39.1681 81.2985 38.9884 81.3664 38.7488 81.4164C38.5031 81.4676 38.1968 81.4994 37.8478 81.4722C37.494 81.4446 37.1532 81.3607 36.8402 81.231L39.9017 73.84C37.8241 72.9794 36.0644 73.8695 35.3579 74.292C34.6563 74.7115 33.9094 75.3363 33.3793 75.7701L38.4452 81.9617ZM27.9228 90.5709L38.4452 81.9617L33.3793 75.7701L22.8569 84.3793L27.9228 90.5709ZM23.8072 92.268C25.1289 92.3339 26.1284 91.8419 26.7093 91.4797C27.1932 91.1779 27.6727 90.7756 27.9229 90.5709L22.8569 84.3793C22.6794 84.5245 22.5747 84.6099 22.4902 84.6756C22.4047 84.7422 22.4132 84.7307 22.4764 84.6913C22.5426 84.65 22.742 84.5313 23.0466 84.4316C23.3791 84.3227 23.7752 84.2565 24.2057 84.2779L23.8072 92.268ZM19.8808 90.1698C20.1093 90.3983 20.5464 90.8464 20.9979 91.1948C21.5398 91.613 22.4854 92.2021 23.8072 92.268L24.2056 84.2779C24.6361 84.2994 25.0237 84.4047 25.3437 84.5462C25.6369 84.6757 25.8235 84.8137 25.8853 84.8613C25.9442 84.9068 25.9515 84.9191 25.8731 84.8444C25.7955 84.7705 25.6998 84.6752 25.5376 84.513L19.8808 90.1698ZM9.51409 79.8031L19.8808 90.1698L25.5376 84.513L15.1709 74.1463L9.51409 79.8031ZM7.41591 75.8767C7.48183 77.1985 8.07087 78.1441 8.48906 78.686C8.83748 79.1375 9.28557 79.5746 9.51408 79.8031L15.1709 74.1463C15.0088 73.9841 14.9134 73.8884 14.8396 73.8109C14.7648 73.7324 14.7771 73.7397 14.8226 73.7986C14.8703 73.8604 15.0082 74.047 15.1377 74.3402C15.2792 74.6602 15.3845 75.0477 15.406 75.4782L7.41591 75.8767ZM9.11299 71.7611C8.90835 72.0112 8.50598 72.4907 8.20421 72.9746C7.84202 73.5555 7.34998 74.555 7.41591 75.8767L15.406 75.4782C15.4274 75.9087 15.3612 76.3048 15.2523 76.6373C15.1526 76.942 15.0339 77.1414 14.9926 77.2076C14.9532 77.2707 14.9417 77.2792 15.0083 77.1937C15.074 77.1092 15.1594 77.0045 15.3046 76.827L9.11299 71.7611ZM17.7221 61.2389L9.11298 71.7611L15.3046 76.827L23.9137 66.3048L17.7221 61.2389ZM18.4528 62.8438C18.3231 62.5309 18.2392 62.19 18.2116 61.8362C18.1844 61.4873 18.2162 61.1809 18.2674 60.9352C18.3174 60.6957 18.3853 60.5159 18.4325 60.407C18.4796 60.2985 18.5179 60.2336 18.5258 60.2204C18.5329 60.2086 18.492 60.2764 18.335 60.4789C18.1827 60.6754 17.9921 60.9089 17.7221 61.2389L23.9137 66.3048C24.3475 65.7746 24.9723 65.0277 25.3918 64.3262C25.8143 63.6196 26.7044 61.86 25.8438 59.7824L18.4528 62.8438ZM19.071 64.4954C19.4952 64.5378 19.7951 64.5681 20.0417 64.5994C20.2959 64.6316 20.3728 64.6506 20.3594 64.6473C20.3446 64.6435 20.2715 64.6247 20.1616 64.5813C20.0511 64.5377 19.876 64.4585 19.6713 64.3245C19.4613 64.187 19.2222 63.9928 18.9947 63.7269C18.764 63.4572 18.5824 63.1568 18.4528 62.8438L25.8438 59.7824C24.9832 57.7048 23.1096 57.0898 22.3112 56.889C21.5185 56.6896 20.5485 56.6033 19.867 56.5351L19.071 64.4954ZM5.54331 63.1426L19.071 64.4954L19.867 56.5351L6.33934 55.1823L5.54331 63.1426ZM1.43308 61.4324C2.3211 62.4137 3.37575 62.7725 4.04258 62.9271C4.59816 63.0559 5.22175 63.1105 5.54331 63.1426L6.33935 55.1823C6.11113 55.1595 5.97669 55.1458 5.87046 55.1326C5.76295 55.1192 5.77705 55.117 5.84959 55.1339C5.92559 55.1515 6.1505 55.2086 6.43642 55.3534C6.74855 55.5116 7.07546 55.7448 7.36469 56.0644L1.43308 61.4324ZM0.140335 57.1724C0.140335 57.4956 0.132564 58.1215 0.205466 58.6871C0.292963 59.366 0.545048 60.4512 1.43308 61.4324L7.36469 56.0644C7.65392 56.384 7.85345 56.7325 7.97975 57.0588C8.09544 57.3577 8.12987 57.5872 8.13984 57.6646C8.14936 57.7384 8.14583 57.7522 8.14319 57.6439C8.14058 57.5369 8.14034 57.4018 8.14034 57.1724H0.140335ZM0.140336 42.5117L0.140335 57.1724L8.14034 57.1724L8.14034 42.5117L0.140336 42.5117ZM1.43308 38.2517C0.545048 39.2329 0.292964 40.3181 0.205467 40.997C0.132565 41.5626 0.140336 42.1885 0.140336 42.5117H8.14034C8.14034 42.2823 8.14058 42.1472 8.14319 42.0402C8.14583 41.9319 8.14936 41.9457 8.13984 42.0195C8.12987 42.0969 8.09544 42.3264 7.97975 42.6253C7.85345 42.9516 7.65392 43.3001 7.36469 43.6197L1.43308 38.2517ZM5.54331 36.5415C5.22175 36.5736 4.59817 36.6282 4.04258 36.757C3.37575 36.9116 2.3211 37.2704 1.43308 38.2517L7.36469 43.6197C7.07546 43.9393 6.74855 44.1725 6.43642 44.3307C6.1505 44.4755 5.92559 44.5326 5.8496 44.5502C5.77705 44.5671 5.76295 44.5649 5.87046 44.5515C5.97669 44.5383 6.11113 44.5246 6.33935 44.5018L5.54331 36.5415ZM19.0727 35.1885L5.54331 36.5415L6.33934 44.5018L19.8687 43.1488L19.0727 35.1885ZM18.4545 36.8401C18.5841 36.5271 18.7658 36.2268 18.9965 35.957C19.224 35.6911 19.4631 35.497 19.673 35.3595C19.8778 35.2254 20.0528 35.1463 20.1633 35.1027C20.2732 35.0593 20.3463 35.0404 20.3612 35.0367C20.3745 35.0333 20.2977 35.0524 20.0434 35.0846C19.7968 35.1158 19.497 35.1461 19.0727 35.1885L19.8687 43.1488C20.5503 43.0807 21.5202 42.9944 22.3129 42.7949C23.1113 42.5941 24.9849 41.9792 25.8455 39.9016L18.4545 36.8401ZM17.7238 38.4451C17.9938 38.7751 18.1844 39.0085 18.3367 39.205C18.4937 39.4076 18.5346 39.4754 18.5275 39.4635C18.5196 39.4504 18.4813 39.3854 18.4342 39.277C18.387 39.168 18.3191 38.9883 18.2692 38.7487C18.2179 38.503 18.1861 38.1967 18.2133 37.8478C18.2409 37.4939 18.3248 37.1531 18.4545 36.8401L25.8455 39.9016C26.7061 37.824 25.816 36.0643 25.3935 35.3578C24.974 34.6562 24.3492 33.9093 23.9154 33.3792L17.7238 38.4451ZM9.11319 27.921L17.7238 38.4451L23.9154 33.3792L15.3049 22.8551L9.11319 27.921ZM7.41612 23.8053C7.35019 25.1271 7.84223 26.1266 8.20442 26.7074C8.50619 27.1914 8.90856 27.6709 9.1132 27.921L15.3048 22.8551C15.1596 22.6776 15.0742 22.5729 15.0085 22.4884C14.9419 22.4029 14.9534 22.4114 14.9928 22.4745C15.0341 22.5407 15.1528 22.7401 15.2525 23.0448C15.3614 23.3773 15.4277 23.7734 15.4062 24.2039L7.41612 23.8053ZM9.5143 19.879C9.28579 20.1075 8.8377 20.5446 8.48927 20.9961C8.07109 21.538 7.48204 22.4836 7.41612 23.8054L15.4062 24.2039C15.3847 24.6344 15.2794 25.0219 15.1379 25.3419C15.0084 25.6351 14.8705 25.8217 14.8228 25.8835C14.7773 25.9424 14.765 25.9497 14.8398 25.8712C14.9136 25.7937 15.009 25.698 15.1712 25.5358L9.5143 19.879ZM19.881 9.51227L9.5143 19.879L15.1712 25.5358L25.5378 15.1691L19.881 9.51227ZM23.8074 7.41409C22.4856 7.48001 21.5401 8.06906 20.9981 8.48725C20.5466 8.83567 20.1095 9.28376 19.881 9.51227L25.5378 15.1691C25.7 15.007 25.7958 14.9116 25.8733 14.8377C25.9517 14.763 25.9444 14.7753 25.8855 14.8208C25.8237 14.8684 25.6371 15.0064 25.3439 15.1359C25.0239 15.2774 24.6364 15.3827 24.2059 15.4042L23.8074 7.41409ZM27.9231 9.11117C27.6729 8.90653 27.1934 8.50416 26.7095 8.20239C26.1286 7.8402 25.1292 7.34816 23.8074 7.41409L24.2059 15.4042C23.7754 15.4256 23.3793 15.3594 23.0468 15.2505C22.7422 15.1507 22.5428 15.0321 22.4766 14.9908C22.4134 14.9514 22.4049 14.9399 22.4904 15.0065C22.5749 15.0722 22.6796 15.1576 22.8572 15.3028L27.9231 9.11117ZM38.4454 17.7203L27.9231 9.11117L22.8572 15.3028L33.3795 23.912L38.4454 17.7203ZM36.8404 18.451C37.1534 18.3214 37.4942 18.2375 37.8481 18.2099C38.197 18.1827 38.5033 18.2145 38.749 18.2657C38.9886 18.3157 39.1683 18.3836 39.2773 18.4308C39.3857 18.4779 39.4507 18.5162 39.4639 18.5241C39.4757 18.5311 39.4079 18.4902 39.2053 18.3333C39.0088 18.181 38.7754 17.9904 38.4454 17.7203L33.3795 23.912C33.9096 24.3457 34.6565 24.9706 35.3581 25.3901C36.0646 25.8126 37.8243 26.7026 39.9019 25.8421L36.8404 18.451ZM35.1888 19.0693C35.1464 19.4935 35.1161 19.7934 35.0849 20.04C35.0527 20.2942 35.0336 20.3711 35.037 20.3577C35.0407 20.3428 35.0596 20.2698 35.103 20.1598C35.1466 20.0494 35.2257 19.8743 35.3598 19.6696C35.4973 19.4596 35.6914 19.2205 35.9574 18.993C36.2271 18.7623 36.5274 18.5807 36.8404 18.451L39.9019 25.8421C41.9795 24.9815 42.5944 23.1079 42.7952 22.3095C42.9947 21.5168 43.081 20.5468 43.1491 19.8653L35.1888 19.0693ZM36.5414 5.54336L35.1888 19.0693L43.1491 19.8653L44.5017 6.33939L36.5414 5.54336ZM38.2516 1.43313C37.2704 2.32115 36.9116 3.3758 36.757 4.04262C36.6281 4.59821 36.5736 5.2218 36.5414 5.54335L44.5017 6.33939C44.5246 6.11118 44.5382 5.97673 44.5515 5.87051C44.5649 5.76299 44.567 5.7771 44.5502 5.84964C44.5326 5.92564 44.4755 6.15054 44.3306 6.43647C44.1725 6.7486 43.9393 7.0755 43.6197 7.36473L38.2516 1.43313ZM42.5117 0.140381C42.1885 0.140381 41.5626 0.13261 40.9969 0.205512C40.318 0.293009 39.2329 0.545094 38.2516 1.43312L43.6197 7.36473C43.3001 7.65397 42.9516 7.85349 42.6253 7.97979C42.3264 8.09549 42.0969 8.12992 42.0195 8.13989C41.9457 8.14941 41.9318 8.14587 42.0401 8.14323C42.1472 8.14062 42.2823 8.14038 42.5117 8.14038V0.140381ZM57.1724 0.140381H42.5117V8.14038H57.1724V0.140381ZM61.4324 1.43312C60.4511 0.545093 59.366 0.293008 58.6871 0.205511C58.1215 0.13261 57.4955 0.140381 57.1724 0.140381V8.14038C57.4017 8.14038 57.5369 8.14062 57.6439 8.14323C57.7522 8.14587 57.7384 8.14941 57.6645 8.13989C57.5871 8.12992 57.3577 8.09549 57.0587 7.97979C56.7324 7.85349 56.3839 7.65397 56.0643 7.36473L61.4324 1.43312ZM64.1227 49.842C64.1227 57.729 57.729 64.1227 49.842 64.1227V72.1227C62.1473 72.1227 72.1227 62.1473 72.1227 49.842H64.1227ZM49.842 35.5614C57.729 35.5614 64.1227 41.9551 64.1227 49.842H72.1227C72.1227 37.5368 62.1473 27.5614 49.842 27.5614V35.5614ZM35.5613 49.842C35.5613 41.9551 41.955 35.5614 49.842 35.5614V27.5614C37.5367 27.5614 27.5613 37.5368 27.5613 49.842H35.5613ZM49.842 64.1227C41.955 64.1227 35.5613 57.729 35.5613 49.842H27.5613C27.5613 62.1473 37.5367 72.1227 49.842 72.1227V64.1227Z" fill="white"/>
</svg>
